<?xml version="1.0" encoding="utf-8"?>
<!-- Generator: Adobe Illustrator 27.0.1, SVG Export Plug-In . SVG Version: 6.00 Build 0)  -->
<svg version="1.1" id="Layer_1" xmlns="http://www.w3.org/2000/svg" xmlns:xlink="http://www.w3.org/1999/xlink" x="0px" y="0px"
	 viewBox="0 0 731.9 308.9" style="enable-background:new 0 0 731.9 308.9;" xml:space="preserve">
<style type="text/css">
	.st0{fill:#D5D300;}
	.st1{fill:#FFFFFF;}
</style>
<g>
	<g>
		<path class="st0" d="M283.1,62.3c-3.6,0-6.5-2.9-6.5-6.5c0-7.7,0.4-16.6,4.9-25.3c5.7-10.8,15.6-18.8,27.4-21.9
			c7.6-2,16-1.8,23.4-1.5c2.3,0.1,4.5,0.1,6.6,0.1H383c2.7,0,5.4,0,8.1-0.1c5.9-0.1,12.1-0.2,18.2,0.2c22.7,1.4,40.6,20.8,40.6,44.3
			l0,2.7l0,1.3c0,3.6-2.9,6.5-6.5,6.5s-6.5-2.9-6.5-6.5l0-1.3l0-2.6c0-16.6-12.5-30.4-28.4-31.4c-5.6-0.3-11.5-0.2-17.2-0.1
			c-2.7,0-5.5,0.1-8.3,0.1h-44.1c-2.3,0-4.7-0.1-7-0.1c-6.8-0.2-13.9-0.4-19.7,1.1c-8.1,2.1-15.3,7.9-19.2,15.4
			c-2.8,5.4-3.4,11.2-3.4,19.3C289.6,59.4,286.7,62.3,283.1,62.3z"/>
	</g>
	<g>
		<path class="st0" d="M480.7,302H253.4c-23.8,0-43.2-19.4-43.2-43.2c0-3.6,2.9-6.5,6.5-6.5s6.5,2.9,6.5,6.5
			c0,16.7,13.6,30.2,30.2,30.2h227.3c16.7,0,30.2-13.6,30.2-30.2c0-3.6,2.9-6.5,6.5-6.5s6.5,2.9,6.5,6.5
			C523.9,282.6,504.6,302,480.7,302z"/>
	</g>
	<g>
		<path class="st0" d="M517.4,135.4c-3.6,0-6.5-2.9-6.5-6.5c0-16.7-13.6-30.2-30.2-30.2H253.4c-16.7,0-30.2,13.6-30.2,30.2
			c0,3.6-2.9,6.5-6.5,6.5s-6.5-2.9-6.5-6.5c0-23.8,19.4-43.2,43.2-43.2h227.3c23.8,0,43.2,19.4,43.2,43.2
			C523.9,132.5,521,135.4,517.4,135.4z"/>
	</g>
	<g>
		<path class="st1" d="M412.3,62.3h-94.6c-3.6,0-6.5-2.9-6.5-6.5s2.9-6.5,6.5-6.5h94.6c3.6,0,6.5,2.9,6.5,6.5S415.8,62.3,412.3,62.3
			z"/>
	</g>
	<g>
		<path class="st0" d="M365,290.2c-54.8,0-99.3-44.5-99.3-99.3s44.5-99.3,99.3-99.3s99.3,44.5,99.3,99.3S419.7,290.2,365,290.2z
			 M365,104.6c-47.6,0-86.3,38.7-86.3,86.3c0,47.6,38.7,86.3,86.3,86.3s86.3-38.7,86.3-86.3C451.3,143.3,412.5,104.6,365,104.6z"/>
	</g>
	<g>
		<path class="st1" d="M301.4,197.4c-0.2,0-0.5,0-0.7,0c-3.6-0.4-6.2-3.6-5.8-7.1c0.1-0.7,1.9-17,10.9-33.5
			c12.4-22.5,32.2-34.4,57.4-34.4c3.6,0,6.5,2.9,6.5,6.5s-2.9,6.5-6.5,6.5c-48.7,0-55.1,53.9-55.4,56.2
			C307.5,194.9,304.7,197.4,301.4,197.4z"/>
	</g>
	<g>
		<path class="st1" d="M4.8,147.4c11,0,22.4,0,34.1,0v11.5H17v44.4h17v11.6H17v22.1l-12.2,0L4.8,147.4z"/>
		<path class="st1" d="M57.7,236.5c-1.9-0.4-4-1.2-6.1-2.4c-2.1-1.3-3.9-3-5.4-5.4c-1.5-2.4-2.4-5.5-2.5-9.5l0-53.9
			c0.1-3.8,1-7,2.8-9.6c1.8-2.6,4.1-4.6,6.9-6c2.8-1.4,5.7-2.1,8.6-2.2c5.3,0,9.6,1.4,12.9,4.3c3.3,2.8,5,6.7,5.2,11.7
			c0.2,18.4,0.2,37,0,55.6c-0.2,5.1-2,9.3-5.2,12.7c-3.3,3.4-7.5,5.2-12.9,5.3C61.2,237.1,59.7,236.9,57.7,236.5z M68,170.1
			c0-2.1-0.1-3.9-0.4-5.6c-0.3-1.7-0.9-3-1.7-4c-0.9-1-2.2-1.5-3.9-1.5c-2.5,0.1-4.1,1.3-4.9,3.3c-0.7,2-1.1,4.5-1,7.4v44.6
			c-0.1,3.6,0.3,6.4,1,8.2c0.7,1.9,2.4,2.9,4.9,3c1.7,0,3-0.4,3.9-1.3c0.9-0.8,1.5-2.1,1.8-3.7s0.4-3.7,0.4-6.1
			C68.2,199.4,68.2,184.7,68,170.1z"/>
		<path class="st1" d="M121.8,147.4v11.5h-11.1v78.1l-12.2,0l0-78.2H86.7v-11.5C90.7,147.4,102.4,147.4,121.8,147.4z"/>
		<path class="st1" d="M142.3,236.5c-1.9-0.4-4-1.2-6.1-2.4c-2.1-1.3-3.9-3-5.4-5.4c-1.5-2.4-2.4-5.5-2.5-9.5l0-53.9
			c0.1-3.8,1-7,2.8-9.6c1.8-2.6,4.1-4.6,6.9-6c2.8-1.4,5.7-2.1,8.6-2.2c5.3,0,9.6,1.4,12.9,4.3c3.3,2.8,5,6.7,5.2,11.7
			c0.2,18.4,0.2,37,0,55.6c-0.2,5.1-2,9.3-5.2,12.7c-3.3,3.4-7.5,5.2-12.9,5.3C145.7,237.1,144.2,236.9,142.3,236.5z M152.5,170.1
			c0-2.1-0.1-3.9-0.4-5.6c-0.3-1.7-0.9-3-1.7-4c-0.9-1-2.2-1.5-3.9-1.5c-2.5,0.1-4.1,1.3-4.9,3.3c-0.7,2-1.1,4.5-1,7.4v44.6
			c-0.1,3.6,0.3,6.4,1,8.2c0.7,1.9,2.4,2.9,4.9,3c1.7,0,3-0.4,3.9-1.3c0.9-0.8,1.5-2.1,1.8-3.7s0.4-3.7,0.4-6.1
			C152.8,199.4,152.8,184.7,152.5,170.1z"/>
		<path class="st1" d="M196.8,147.4c11,0,22.3,0,34.1,0v11.5H209v44.4h21.9v11.6H209v10.6h21.9v11.6h-30.1h-4L196.8,147.4z"/>
		<path class="st1" d="M237.1,224.8l12.2,0v12.7h-12.2L237.1,224.8z"/>
	</g>
	<g>
		<path class="st1" d="M509.9,237c-1.4-0.1-3-0.4-4.7-0.9c-1.7-0.5-3.3-1.3-4.8-2.5c-1.6-1.1-2.8-2.7-3.9-4.7c-1-2-1.6-4.6-1.7-7.7
			v-6.2h12.2c-0.1,3.5,0.3,6.2,1,7.9c0.8,1.8,2.4,2.6,4.8,2.6c1.7,0,3.1-0.5,4-1.4s1.5-2.2,1.8-3.6c0.3-1.5,0.4-2.9,0.4-4.4
			c0-2-0.3-3.7-1-5c-0.6-1.4-1.5-2.5-2.6-3.5c-1.1-1-2.3-1.8-3.7-2.5c-1.4-0.7-2.8-1.4-4.2-2.1c-2.1-0.9-4.1-1.9-6-3.1
			c-1.9-1.1-3.4-2.7-4.7-4.5c-1.2-1.9-1.8-4.4-1.9-7.4l0-24.3c0.2-5,2-8.9,5.2-11.8c3.3-2.8,7.5-4.3,12.9-4.3c0.7,0,1.8,0,3.3,0.1
			c1.4,0.1,3,0.4,4.7,0.9c1.7,0.5,3.3,1.3,4.8,2.5c1.5,1.1,2.8,2.7,3.8,4.7c1,2,1.6,4.6,1.7,7.7v17.5l-12.2,0v-11.3
			c0-3.5-0.3-6.2-1.1-7.9c-0.7-1.8-2.4-2.6-4.8-2.6c-1.7,0-3,0.4-3.9,1.3c-0.9,0.8-1.5,2.1-1.8,3.7c-0.3,1.7-0.4,3.7-0.4,6.1
			l-0.1,15.5c0,1.6,0.4,2.9,1.1,3.8c0.7,1,1.7,1.8,3,2.5c1.2,0.7,2.6,1.4,4.1,2c1.8,0.8,3.6,1.7,5.4,2.7c1.8,1,3.6,2.4,5.2,4.2
			c1.6,1.7,2.8,4,3.8,6.8c1,2.8,1.5,6.4,1.5,10.7c0.3,4-0.4,7.5-2,10.3c-1.6,2.9-3.8,5-6.6,6.5c-2.8,1.4-6,2.1-9.5,1.8
			C512.4,237.2,511.3,237.1,509.9,237z"/>
		<path class="st1" d="M537.5,147.5l12.2-0.1v89.7l-12.2,0L537.5,147.5z"/>
		<path class="st1" d="M556.2,147.5c11,0,22.3,0,34.1,0V159h-21.9v44.4h21.9V215h-21.9v10.6h21.9v11.6h-30.1h-4L556.2,147.5z"/>
		<path class="st1" d="M596.6,147.5c6.4,0,12.8-0.1,19.1,0c5.3,0,9.5,1.4,12.4,4.3c3,2.8,4.6,6.7,4.8,11.7l0.2,30.5
			c-0.1,5.6-0.8,9.9-2.1,12.8c-1.4,3-3,5-5,6.1c-2,1.1-3.8,1.7-5.6,1.8l12.4,22.5h-11.6L609,214.9l-0.2,22.2l-12.2,0L596.6,147.5z
			 M608.8,159v44.3h4.5c2.5,0,4.3-0.7,5.3-2.3c1-1.5,1.7-4.1,1.9-7.9c0.2-3.8,0.3-9.1,0.2-15.8c0-2.2,0-4.6,0-7.2
			c0.1-4.1-0.3-7-1-8.6c-0.8-1.7-2.4-2.5-5.1-2.5L608.8,159z"/>
		<path class="st1" d="M639.4,147.5c6.4,0,12.8-0.1,19.1,0c5.3,0,9.5,1.4,12.4,4.3c3,2.8,4.6,6.7,4.8,11.7l0.2,30.5
			c-0.1,5.6-0.8,9.9-2.1,12.8c-1.4,3-3,5-5,6.1c-2,1.1-3.8,1.7-5.6,1.8l12.4,22.5H664l-12.3-22.2l-0.2,22.2l-12.2,0L639.4,147.5z
			 M651.5,159v44.3h4.5c2.5,0,4.3-0.7,5.3-2.3c1-1.5,1.7-4.1,1.9-7.9c0.2-3.8,0.3-9.1,0.2-15.8c0-2.2,0-4.6,0-7.2
			c0.1-4.1-0.3-7-1-8.6c-0.8-1.7-2.4-2.5-5.1-2.5L651.5,159z"/>
		<path class="st1" d="M715,237.1l-4.1-22.2h-12.6l-4.1,22.2l-12.2,0l16.3-89.7l12.4,0l16.3,89.6H715z M708.9,203.4l-4.2-22.3
			l-4.2,22.3H708.9z"/>
	</g>
</g>
</svg>
